#tb 0: 1/25
#tb 1: 1/48000
0,          0,          0,        1,  6220800, 0x74fa6288
1,          0,          0,     1024,     4096, 0x00000000
1,       1024,       1024,      896,     3584, 0x00000000
0,          1,          1,        1,  6220800, 0x4b484b90
1,       1920,       1920,     1024,     4096, 0x00000000
1,       2944,       2944,      896,     3584, 0x00000000
0,          2,          2,        1,  6220800, 0x35dc9ad0
1,       3840,       3840,     1024,     4096, 0x00000000
1,       4864,       4864,      896,     3584, 0x00000000
0,          3,          3,        1,  6220800, 0x7f66820e
1,       5760,       5760,     1024,     4096, 0x00000000
1,       6784,       6784,      896,     3584, 0x00000000
0,          4,          4,        1,  6220800, 0x092d1465
1,       7680,       7680,     1024,     4096, 0x00000000
1,       8704,       8704,      896,     3584, 0x00000000
0,          5,          5,        1,  6220800, 0x446a3381
1,       9600,       9600,     1024,     4096, 0x00000000
1,      10624,      10624,      896,     3584, 0x00000000
0,          6,          6,        1,  6220800, 0x1de58cdd
1,      11520,      11520,     1024,     4096, 0x00000000
1,      12544,      12544,      896,     3584, 0x00000000
0,          7,          7,        1,  6220800, 0x869efb80
1,      13440,      13440,     1024,     4096, 0x00000000
1,      14464,      14464,      896,     3584, 0x00000000
0,          8,          8,        1,  6220800, 0xdd0c76df
1,      15360,      15360,     1024,     4096, 0x00000000
1,      16384,      16384,      896,     3584, 0x00000000
0,          9,          9,        1,  6220800, 0x25f95fbe
1,      17280,      17280,     1024,     4096, 0x00000000
1,      18304,      18304,      896,     3584, 0x00000000
0,         10,         10,        1,  6220800, 0xf85dae8d
1,      19200,      19200,     1024,     4096, 0x00000000
1,      20224,      20224,      896,     3584, 0x00000000
0,         11,         11,        1,  6220800, 0xe9bb3554
1,      21120,      21120,     1024,     4096, 0x00000000
1,      22144,      22144,      896,     3584, 0x00000000
0,         12,         12,        1,  6220800, 0x1e37244a
1,      23040,      23040,     1024,     4096, 0x00000000
1,      24064,      24064,      896,     3584, 0x00000000
0,         13,         13,        1,  6220800, 0xb730e07a
1,      24960,      24960,     1024,     4096, 0x00000000
1,      25984,      25984,      896,     3584, 0x00000000
0,         14,         14,        1,  6220800, 0x515f2342
1,      26880,      26880,     1024,     4096, 0xee2f501e
1,      27904,      27904,      896,     3584, 0xaf2a9dbb
0,         15,         15,        1,  6220800, 0xb9dfd057
1,      28800,      28800,     1024,     4096, 0xbf445063
1,      29824,      29824,      896,     3584, 0x4de28679
0,         16,         16,        1,  6220800, 0x41e19d52
1,      30720,      30720,     1024,     4096, 0x1d1a3e1a
1,      31744,      31744,      896,     3584, 0x36a9cf9d
0,         17,         17,        1,  6220800, 0x047be35f
1,      32640,      32640,     1024,     4096, 0xe746e26b
1,      33664,      33664,      896,     3584, 0x4bfde2fb
0,         18,         18,        1,  6220800, 0x970245a2
1,      34560,      34560,     1024,     4096, 0xc84bf311
1,      35584,      35584,      896,     3584, 0x9cacfb07
0,         19,         19,        1,  6220800, 0xc7bd33a6
1,      36480,      36480,     1024,     4096, 0x8be319a7
1,      37504,      37504,      896,     3584, 0x5ed028ed
0,         20,         20,        1,  6220800, 0x1ed30dcf
1,      38400,      38400,     1024,     4096, 0xa70eda9c
1,      39424,      39424,      896,     3584, 0x162cfb0c
0,         21,         21,        1,  6220800, 0xa24b5680
1,      40320,      40320,     1024,     4096, 0x368adf50
1,      41344,      41344,      896,     3584, 0x46679912
0,         22,         22,        1,  6220800, 0x3ae51352
1,      42240,      42240,     1024,     4096, 0xe10f49e6
1,      43264,      43264,      896,     3584, 0x7ead0930
0,         23,         23,        1,  6220800, 0x7cdc8ca6
1,      44160,      44160,     1024,     4096, 0xc460d52e
1,      45184,      45184,      896,     3584, 0x99f5c815
0,         24,         24,        1,  6220800, 0x7a010858
1,      46080,      46080,     1024,     4096, 0xb865d0bd
1,      47104,      47104,      896,     3584, 0xf641136e
0,         25,         25,        1,  6220800, 0x2ca6890d
1,      48000,      48000,     1024,     4096, 0x0106c65c
1,      49024,      49024,      896,     3584, 0x2758e92f
0,         26,         26,        1,  6220800, 0xb1f25772
1,      49920,      49920,     1024,     4096, 0xa4f61404
1,      50944,      50944,      896,     3584, 0x4884c7de
0,         27,         27,        1,  6220800, 0xcfc7b7e7
1,      51840,      51840,     1024,     4096, 0x6749c2f3
1,      52864,      52864,      896,     3584, 0xc2dbcce3
0,         28,         28,        1,  6220800, 0x334a6355
1,      53760,      53760,     1024,     4096, 0xea391125
1,      54784,      54784,      896,     3584, 0x167603a6
0,         29,         29,        1,  6220800, 0x190fe5b4
1,      55680,      55680,     1024,     4096, 0x3a10e821
1,      56704,      56704,      896,     3584, 0x7f09c47f
0,         30,         30,        1,  6220800, 0x85e5a8f1
1,      57600,      57600,     1024,     4096, 0xd11b0cc2
1,      58624,      58624,      896,     3584, 0x54a2f1ce
0,         31,         31,        1,  6220800, 0x9d99390c
1,      59520,      59520,     1024,     4096, 0xb202f9f2
1,      60544,      60544,      896,     3584, 0x4b90cfd6
0,         32,         32,        1,  6220800, 0x36ca29e0
1,      61440,      61440,     1024,     4096, 0xe8f9c7f9
1,      62464,      62464,      896,     3584, 0xde6207cd
0,         33,         33,        1,  6220800, 0x3940c6bf
1,      63360,      63360,     1024,     4096, 0xc8aa05ec
1,      64384,      64384,      896,     3584, 0x12e944a1
0,         34,         34,        1,  6220800, 0x99ca7bf9
1,      65280,      65280,     1024,     4096, 0xceda97cd
1,      66304,      66304,      896,     3584, 0xc1d56641
0,         35,         35,        1,  6220800, 0x1adc706d
1,      67200,      67200,     1024,     4096, 0xdd20e96f
1,      68224,      68224,      896,     3584, 0xf1b3a865
0,         36,         36,        1,  6220800, 0x5363a0af
1,      69120,      69120,     1024,     4096, 0xc3802e53
1,      70144,      70144,      896,     3584, 0x33690dd5
0,         37,         37,        1,  6220800, 0x22cac32f
1,      71040,      71040,     1024,     4096, 0x88bc1328
1,      72064,      72064,      896,     3584, 0xe88bec8b
0,         38,         38,        1,  6220800, 0x10319e67
1,      72960,      72960,     1024,     4096, 0x35f8325f
1,      73984,      73984,      896,     3584, 0xb9cc49b0
0,         39,         39,        1,  6220800, 0xd83fa26f
1,      74880,      74880,     1024,     4096, 0x096c2056
1,      75904,      75904,      896,     3584, 0x7ea35f79
0,         40,         40,        1,  6220800, 0x95c741cc
1,      76800,      76800,     1024,     4096, 0x3c61e5bb
1,      77824,      77824,      896,     3584, 0x5127f170
0,         41,         41,        1,  6220800, 0xe0da63b8
1,      78720,      78720,     1024,     4096, 0x1c200b80
1,      79744,      79744,      896,     3584, 0x4a316ae6
0,         42,         42,        1,  6220800, 0x34f96b3a
1,      80640,      80640,     1024,     4096, 0xc759f1df
1,      81664,      81664,      896,     3584, 0xc05fbf78
0,         43,         43,        1,  6220800, 0x14db8ad2
1,      82560,      82560,     1024,     4096, 0xa356dffa
1,      83584,      83584,      896,     3584, 0x8dcdd777
0,         44,         44,        1,  6220800, 0x8f96ba08
1,      84480,      84480,     1024,     4096, 0xd49f3657
1,      85504,      85504,      896,     3584, 0x5fb3eedb
0,         45,         45,        1,  6220800, 0x4067d0e7
1,      86400,      86400,     1024,     4096, 0x2ab64da8
1,      87424,      87424,      896,     3584, 0xd9850ddf
0,         46,         46,        1,  6220800, 0xbef73ab9
1,      88320,      88320,     1024,     4096, 0x7d8aecdd
1,      89344,      89344,      896,     3584, 0x3118de55
0,         47,         47,        1,  6220800, 0x6919142d
1,      90240,      90240,     1024,     4096, 0x57fc0108
1,      91264,      91264,      896,     3584, 0xdc80abef
0,         48,         48,        1,  6220800, 0x5080f26f
1,      92160,      92160,     1024,     4096, 0xac9aeacf
1,      93184,      93184,      896,     3584, 0x4c4f4d07
0,         49,         49,        1,  6220800, 0x90624c07
1,      94080,      94080,     1024,     4096, 0x024cd590
1,      95104,      95104,      896,     3584, 0x9d89000d
0,         50,         50,        1,  6220800, 0xd1d06b41
1,      96000,      96000,     1024,     4096, 0xf7dfe365
1,      97024,      97024,      896,     3584, 0x6a287119
0,         51,         51,        1,  6220800, 0x7a5a6349
1,      97920,      97920,     1024,     4096, 0xfe4fcf00
1,      98944,      98944,      896,     3584, 0xb1fbf061
0,         52,         52,        1,  6220800, 0xc678f831
1,      99840,      99840,     1024,     4096, 0xf6ed22db
1,     100864,     100864,      896,     3584, 0x4e591bfc
0,         53,         53,        1,  6220800, 0x0bea336c
1,     101760,     101760,     1024,     4096, 0xcd8f0d93
1,     102784,     102784,      896,     3584, 0x6288ffec
0,         54,         54,        1,  6220800, 0xaf35901e
1,     103680,     103680,     1024,     4096, 0x0665f359
1,     104704,     104704,      896,     3584, 0x27b81e30
0,         55,         55,        1,  6220800, 0xdb7bfb53
1,     105600,     105600,     1024,     4096, 0xca3ed1e8
1,     106624,     106624,      896,     3584, 0x2967aa84
0,         56,         56,        1,  6220800, 0xea5c6c99
1,     107520,     107520,     1024,     4096, 0x2dfe0622
1,     108544,     108544,      896,     3584, 0x98792c3d
0,         57,         57,        1,  6220800, 0x755426d5
1,     109440,     109440,     1024,     4096, 0xc41cf4f0
1,     110464,     110464,      896,     3584, 0xc94ae7cd
0,         58,         58,        1,  6220800, 0x947c3eb7
1,     111360,     111360,     1024,     4096, 0x4042c636
1,     112384,     112384,      896,     3584, 0xe83b6519
0,         59,         59,        1,  6220800, 0xac3d25e3
1,     113280,     113280,     1024,     4096, 0x891fd8f0
1,     114304,     114304,      896,     3584, 0xca13cf96
0,         60,         60,        1,  6220800, 0xb6266c24
1,     115200,     115200,     1024,     4096, 0x6676d99b
1,     116224,     116224,      896,     3584, 0x5173c979
0,         61,         61,        1,  6220800, 0x6fac3eb1
1,     117120,     117120,     1024,     4096, 0x89b4ebfc
1,     118144,     118144,      896,     3584, 0x7147eb04
0,         62,         62,        1,  6220800, 0xa32dd548
1,     119040,     119040,     1024,     4096, 0x329efbbd
1,     120064,     120064,      896,     3584, 0xf80bd4a8
0,         63,         63,        1,  6220800, 0x1be314e8
1,     120960,     120960,     1024,     4096, 0x65a61021
1,     121984,     121984,      896,     3584, 0xad310a2f
0,         64,         64,        1,  6220800, 0x07879fba
1,     122880,     122880,     1024,     4096, 0x73b23445
1,     123904,     123904,      896,     3584, 0xd527322a
0,         65,         65,        1,  6220800, 0xb4c0ac2f
1,     124800,     124800,     1024,     4096, 0xf5fa9a03
1,     125824,     125824,      896,     3584, 0xe77f0413
0,         66,         66,        1,  6220800, 0xa495e835
1,     126720,     126720,     1024,     4096, 0xfe89397a
1,     127744,     127744,      896,     3584, 0x12b0b3ad
0,         67,         67,        1,  6220800, 0xd668e948
1,     128640,     128640,     1024,     4096, 0xf8a6ce2b
1,     129664,     129664,      896,     3584, 0x3d6c8498
0,         68,         68,        1,  6220800, 0x6d9d0ed3
1,     130560,     130560,     1024,     4096, 0x80dcf16e
1,     131584,     131584,      896,     3584, 0x0dc4a299
0,         69,         69,        1,  6220800, 0x46bee398
1,     132480,     132480,     1024,     4096, 0x8e42d121
1,     133504,     133504,      896,     3584, 0x2d26dc45
0,         70,         70,        1,  6220800, 0xd894249d
1,     134400,     134400,     1024,     4096, 0xe6d090a9
1,     135424,     135424,      896,     3584, 0x1d7d69f1
0,         71,         71,        1,  6220800, 0x9f16757f
1,     136320,     136320,     1024,     4096, 0x0c84b477
1,     137344,     137344,      896,     3584, 0xbf5f51f9
0,         72,         72,        1,  6220800, 0x0268888d
1,     138240,     138240,     1024,     4096, 0x4f26f929
1,     139264,     139264,      896,     3584, 0x10f11bce
0,         73,         73,        1,  6220800, 0xef2ba48e
1,     140160,     140160,     1024,     4096, 0x764beef9
1,     141184,     141184,      896,     3584, 0x896e042c
0,         74,         74,        1,  6220800, 0x4b356be2
1,     142080,     142080,     1024,     4096, 0x3731cd68
1,     143104,     143104,      896,     3584, 0x30cd2867
0,         75,         75,        1,  6220800, 0xa9534a59
1,     144000,     144000,     1024,     4096, 0xa597c54c
1,     145024,     145024,      896,     3584, 0x00e845ff
0,         76,         76,        1,  6220800, 0xaff146c9
1,     145920,     145920,     1024,     4096, 0x14ae160a
1,     146944,     146944,      896,     3584, 0xad55f388
0,         77,         77,        1,  6220800, 0x34a89efa
1,     147840,     147840,     1024,     4096, 0xe0e6e1ae
1,     148864,     148864,      896,     3584, 0x3c2b02e6
0,         78,         78,        1,  6220800, 0x733f8b3c
1,     149760,     149760,     1024,     4096, 0xa4e42f6f
1,     150784,     150784,      896,     3584, 0x6d17f023
0,         79,         79,        1,  6220800, 0xdd289522
1,     151680,     151680,     1024,     4096, 0x8891aa9a
1,     152704,     152704,      896,     3584, 0xccaefa43
0,         80,         80,        1,  6220800, 0x41ab9b53
1,     153600,     153600,     1024,     4096, 0x98a64958
1,     154624,     154624,      896,     3584, 0xdfbf5c03
0,         81,         81,        1,  6220800, 0x2782517a
1,     155520,     155520,     1024,     4096, 0x03c7482b
1,     156544,     156544,      896,     3584, 0x5f42c785
0,         82,         82,        1,  6220800, 0x97a3df46
1,     157440,     157440,     1024,     4096, 0x620de158
1,     158464,     158464,      896,     3584, 0x586b125e
0,         83,         83,        1,  6220800, 0xbf324912
1,     159360,     159360,     1024,     4096, 0x5d41ef97
1,     160384,     160384,      896,     3584, 0x74b11c35
0,         84,         84,        1,  6220800, 0xcc4b0e0a
1,     161280,     161280,     1024,     4096, 0xfcfbd9fe
1,     162304,     162304,      896,     3584, 0xced5d634
0,         85,         85,        1,  6220800, 0xe555bac0
1,     163200,     163200,     1024,     4096, 0x1b86d0a4
1,     164224,     164224,      896,     3584, 0x001c1978
0,         86,         86,        1,  6220800, 0x886a9aea
1,     165120,     165120,     1024,     4096, 0x98680260
1,     166144,     166144,      896,     3584, 0x359fddcf
0,         87,         87,        1,  6220800, 0xc6450e5e
1,     167040,     167040,     1024,     4096, 0x3e4a7e6e
1,     168064,     168064,      896,     3584, 0x9e57e3da
0,         88,         88,        1,  6220800, 0x15fe4a38
1,     168960,     168960,     1024,     4096, 0x1032abda
1,     169984,     169984,      896,     3584, 0x27bad9ec
0,         89,         89,        1,  6220800, 0x97edeb43
1,     170880,     170880,     1024,     4096, 0xa4a60a01
1,     171904,     171904,      896,     3584, 0x0517eeb3
0,         90,         90,        1,  6220800, 0xef356e00
1,     172800,     172800,     1024,     4096, 0xc70d079d
1,     173824,     173824,      896,     3584, 0x9729c5f1
0,         91,         91,        1,  6220800, 0x51f48429
1,     174720,     174720,     1024,     4096, 0xd7d9a0b3
1,     175744,     175744,      896,     3584, 0x88e7ff46
0,         92,         92,        1,  6220800, 0xe9b3acf4
1,     176640,     176640,     1024,     4096, 0x71cd18db
1,     177664,     177664,      896,     3584, 0xe46bd81b
0,         93,         93,        1,  6220800, 0x2d746c6d
1,     178560,     178560,     1024,     4096, 0x22cbf90a
1,     179584,     179584,      896,     3584, 0xb5ff96a6
0,         94,         94,        1,  6220800, 0xae75cded
1,     180480,     180480,     1024,     4096, 0x3f417397
1,     181504,     181504,      896,     3584, 0xa4db543c
0,         95,         95,        1,  6220800, 0x60b44101
1,     182400,     182400,     1024,     4096, 0x93246b75
1,     183424,     183424,      896,     3584, 0xc3b925d6
0,         96,         96,        1,  6220800, 0xcaba6a34
1,     184320,     184320,     1024,     4096, 0x6d7bf561
1,     185344,     185344,      896,     3584, 0x619e004e
0,         97,         97,        1,  6220800, 0xe78e4e8b
1,     186240,     186240,     1024,     4096, 0x52fbce4a
1,     187264,     187264,      896,     3584, 0x6d8be9ab
0,         98,         98,        1,  6220800, 0x8fdf1e5b
1,     188160,     188160,     1024,     4096, 0x5d141687
1,     189184,     189184,      896,     3584, 0x1a3ee4f1
0,         99,         99,        1,  6220800, 0x1484b0c8
1,     190080,     190080,     1024,     4096, 0xcdf8d287
1,     191104,     191104,      896,     3584, 0x3c45f46f
0,        100,        100,        1,  6220800, 0xec036f66
1,     192000,     192000,     1024,     4096, 0x5a9f04ba
1,     193024,     193024,      896,     3584, 0xb089fe08
0,        101,        101,        1,  6220800, 0x909f1159
1,     193920,     193920,     1024,     4096, 0xa4b6f100
1,     194944,     194944,      896,     3584, 0x3c71da4f
0,        102,        102,        1,  6220800, 0x173ec1c2
1,     195840,     195840,     1024,     4096, 0x181a0599
1,     196864,     196864,      896,     3584, 0xe26305c8
0,        103,        103,        1,  6220800, 0x7de53759
1,     197760,     197760,     1024,     4096, 0xef3a089f
1,     198784,     198784,      896,     3584, 0x0efa1473
0,        104,        104,        1,  6220800, 0x2a9a4890
1,     199680,     199680,     1024,     4096, 0x5b46e817
1,     200704,     200704,      896,     3584, 0xc2e60d0e
0,        105,        105,        1,  6220800, 0x954f8e21
1,     201600,     201600,     1024,     4096, 0x86afc4f1
1,     202624,     202624,      896,     3584, 0x3262f853
0,        106,        106,        1,  6220800, 0x8d6b4fb9
1,     203520,     203520,     1024,     4096, 0x1750c8a7
1,     204544,     204544,      896,     3584, 0x7b2ff3aa
0,        107,        107,        1,  6220800, 0xe471776c
1,     205440,     205440,     1024,     4096, 0x4b350459
1,     206464,     206464,      896,     3584, 0x3e32f99f
0,        108,        108,        1,  6220800, 0xff6f8fa8
1,     207360,     207360,     1024,     4096, 0x1633152b
1,     208384,     208384,      896,     3584, 0x0f7be510
0,        109,        109,        1,  6220800, 0x5b06fcdc
1,     209280,     209280,     1024,     4096, 0x8a33d8ce
1,     210304,     210304,      896,     3584, 0x2e2cea48
0,        110,        110,        1,  6220800, 0xc7b99da5
1,     211200,     211200,     1024,     4096, 0x0ee30399
1,     212224,     212224,      896,     3584, 0xbf78edcb
0,        111,        111,        1,  6220800, 0xd53da527
1,     213120,     213120,     1024,     4096, 0xebe8ec45
1,     214144,     214144,      896,     3584, 0x70c9fc74
0,        112,        112,        1,  6220800, 0x7264762f
1,     215040,     215040,     1024,     4096, 0x64cfe66e
1,     216064,     216064,      896,     3584, 0x2be9f370
0,        113,        113,        1,  6220800, 0x58d8b38e
1,     216960,     216960,     1024,     4096, 0x523ed138
1,     217984,     217984,      896,     3584, 0x6e05fc21
0,        114,        114,        1,  6220800, 0x336e2899
1,     218880,     218880,     1024,     4096, 0xc01cf0af
1,     219904,     219904,      896,     3584, 0xbe2fbcd2
0,        115,        115,        1,  6220800, 0x521e330e
1,     220800,     220800,     1024,     4096, 0x0f74cdd0
1,     221824,     221824,      896,     3584, 0x62080f42
0,        116,        116,        1,  6220800, 0x20f12ce4
1,     222720,     222720,     1024,     4096, 0x499bd7db
1,     223744,     223744,      896,     3584, 0xa0b1d905
0,        117,        117,        1,  6220800, 0xdab5808a
1,     224640,     224640,     1024,     4096, 0xd26cee09
1,     225664,     225664,      896,     3584, 0x3310f6b1
0,        118,        118,        1,  6220800, 0x55f2e35e
1,     226560,     226560,     1024,     4096, 0x0e2b078c
1,     227584,     227584,      896,     3584, 0x7f430934
0,        119,        119,        1,  6220800, 0xb12787af
1,     228480,     228480,     1024,     4096, 0x0cb6ef8b
1,     229504,     229504,      896,     3584, 0x2b4514f5
0,        120,        120,        1,  6220800, 0x7351541a
1,     230400,     230400,     1024,     4096, 0x9349182d
1,     231424,     231424,      896,     3584, 0x56b9f604
0,        121,        121,        1,  6220800, 0x1e5126e6
1,     232320,     232320,     1024,     4096, 0xe3fe127c
1,     233344,     233344,      896,     3584, 0x8707efe5
0,        122,        122,        1,  6220800, 0x88005ef3
1,     234240,     234240,     1024,     4096, 0xa964df08
1,     235264,     235264,      896,     3584, 0x9eb601fc
0,        123,        123,        1,  6220800, 0xc56d81e0
1,     236160,     236160,     1024,     4096, 0x19e5f1cd
1,     237184,     237184,      896,     3584, 0x37e3f2b1
0,        124,        124,        1,  6220800, 0x36376e14
1,     238080,     238080,     1024,     4096, 0xa25415a2
1,     239104,     239104,      896,     3584, 0x9339d878
0,        125,        125,        1,  6220800, 0x4cc7d454
1,     240000,     240000,     1024,     4096, 0xd17eeaed
1,     241024,     241024,      896,     3584, 0x1854f15a
0,        126,        126,        1,  6220800, 0x02430b48
1,     241920,     241920,     1024,     4096, 0x992c1917
1,     242944,     242944,      896,     3584, 0xa897bff0
0,        127,        127,        1,  6220800, 0x1a5e5d2d
1,     243840,     243840,     1024,     4096, 0xf6a42a57
1,     244864,     244864,      896,     3584, 0x8c78de75
0,        128,        128,        1,  6220800, 0xee2e9d30
1,     245760,     245760,     1024,     4096, 0x6bd3f08c
1,     246784,     246784,      896,     3584, 0xeb65f032
0,        129,        129,        1,  6220800, 0x8323f658
1,     247680,     247680,     1024,     4096, 0x8aa8dd3c
1,     248704,     248704,      896,     3584, 0xf1a7d7c0
0,        130,        130,        1,  6220800, 0x9c856045
1,     249600,     249600,     1024,     4096, 0x5347f96e
1,     250624,     250624,      896,     3584, 0x2305123e
0,        131,        131,        1,  6220800, 0x642d6edd
1,     251520,     251520,     1024,     4096, 0x1879dbc0
1,     252544,     252544,      896,     3584, 0x2e442a36
0,        132,        132,        1,  6220800, 0x1277da01
1,     253440,     253440,     1024,     4096, 0x7726c7d0
1,     254464,     254464,      896,     3584, 0x4db1ff7e
0,        133,        133,        1,  6220800, 0xee9e70d2
1,     255360,     255360,     1024,     4096, 0x89ecf4ac
1,     256384,     256384,      896,     3584, 0x74bdd7da
0,        134,        134,        1,  6220800, 0x2d4312d2
1,     257280,     257280,     1024,     4096, 0x6b48fcd1
1,     258304,     258304,      896,     3584, 0xce6d04a3
0,        135,        135,        1,  6220800, 0x95f62de9
1,     259200,     259200,     1024,     4096, 0xf54ce07a
1,     260224,     260224,      896,     3584, 0x3057bd2a
0,        136,        136,        1,  6220800, 0xdd0d2b2c
1,     261120,     261120,     1024,     4096, 0x68ade40e
1,     262144,     262144,      896,     3584, 0xd0bb1a40
0,        137,        137,        1,  6220800, 0x9f2e6e3c
1,     263040,     263040,     1024,     4096, 0xf3d72728
1,     264064,     264064,      896,     3584, 0x9af30d92
0,        138,        138,        1,  6220800, 0x7708b1c1
1,     264960,     264960,     1024,     4096, 0x6d66eadf
1,     265984,     265984,      896,     3584, 0xfc01d4c3
0,        139,        139,        1,  6220800, 0xe3e2eb12
1,     266880,     266880,     1024,     4096, 0x23a4e645
1,     267904,     267904,      896,     3584, 0x2e3bd763
0,        140,        140,        1,  6220800, 0xac367b88
1,     268800,     268800,     1024,     4096, 0x74d1e6be
1,     269824,     269824,      896,     3584, 0x5a0304d0
0,        141,        141,        1,  6220800, 0xb5a79c60
1,     270720,     270720,     1024,     4096, 0xe82df306
1,     271744,     271744,      896,     3584, 0x9993dc51
0,        142,        142,        1,  6220800, 0x3c0b3391
1,     272640,     272640,     1024,     4096, 0x98aaf8f3
1,     273664,     273664,      896,     3584, 0xb3472830
0,        143,        143,        1,  6220800, 0x74649c72
1,     274560,     274560,     1024,     4096, 0x997bca45
1,     275584,     275584,      896,     3584, 0x179c0e12
0,        144,        144,        1,  6220800, 0x116eb877
1,     276480,     276480,     1024,     4096, 0x2824038f
1,     277504,     277504,      896,     3584, 0xf7bc1e9c
0,        145,        145,        1,  6220800, 0xf7a1b709
1,     278400,     278400,     1024,     4096, 0x504cea3b
1,     279424,     279424,      896,     3584, 0xf58507e5
0,        146,        146,        1,  6220800, 0x41cc993f
1,     280320,     280320,     1024,     4096, 0x8e48fdee
1,     281344,     281344,      896,     3584, 0xdde8138b
0,        147,        147,        1,  6220800, 0x0e169a18
1,     282240,     282240,     1024,     4096, 0xd74f0bf6
1,     283264,     283264,      896,     3584, 0x26c5f4de
0,        148,        148,        1,  6220800, 0x85b2b5e2
1,     284160,     284160,     1024,     4096, 0x6ba1e467
1,     285184,     285184,      896,     3584, 0x0bd51709
0,        149,        149,        1,  6220800, 0xf6427617
1,     286080,     286080,     1024,     4096, 0xb8eee9f5
1,     287104,     287104,      896,     3584, 0xeeb9e44b
0,        150,        150,        1,  6220800, 0x988a1efa
1,     288000,     288000,     1024,     4096, 0xc1f8f872
1,     289024,     289024,      896,     3584, 0x6c8ed522
0,        151,        151,        1,  6220800, 0xbc12bf94
1,     289920,     289920,     1024,     4096, 0xe032023e
1,     290944,     290944,      896,     3584, 0xed40c3ee
0,        152,        152,        1,  6220800, 0x0be39ef2
1,     291840,     291840,     1024,     4096, 0xb5bd363f
1,     292864,     292864,      896,     3584, 0x7e15ead4
0,        153,        153,        1,  6220800, 0x19750ef1
1,     293760,     293760,     1024,     4096, 0x6cf0bd85
1,     294784,     294784,      896,     3584, 0xa839d9f8
0,        154,        154,        1,  6220800, 0xcc7db738
1,     295680,     295680,     1024,     4096, 0x92a1ca66
1,     296704,     296704,      896,     3584, 0xc1dbf4a8
0,        155,        155,        1,  6220800, 0xcc5a2243
1,     297600,     297600,     1024,     4096, 0xa8a3e8fa
1,     298624,     298624,      896,     3584, 0xdb62efe8
0,        156,        156,        1,  6220800, 0xf064479b
1,     299520,     299520,     1024,     4096, 0x57cf061c
1,     300544,     300544,      896,     3584, 0x715eab99
0,        157,        157,        1,  6220800, 0xc5bec4ae
1,     301440,     301440,     1024,     4096, 0xc3f40cca
1,     302464,     302464,      896,     3584, 0x1bdbf170
0,        158,        158,        1,  6220800, 0x22783176
1,     303360,     303360,     1024,     4096, 0x84d700f9
1,     304384,     304384,      896,     3584, 0x7851f60d
0,        159,        159,        1,  6220800, 0x6e8b719f
1,     305280,     305280,     1024,     4096, 0x6fb1e498
1,     306304,     306304,      896,     3584, 0xa43ef205
0,        160,        160,        1,  6220800, 0x126fb085
1,     307200,     307200,     1024,     4096, 0xa716f58d
1,     308224,     308224,      896,     3584, 0x01cfe3cf
0,        161,        161,        1,  6220800, 0x8de9a070
1,     309120,     309120,     1024,     4096, 0x2e0905e4
1,     310144,     310144,      896,     3584, 0xd3f71aa9
0,        162,        162,        1,  6220800, 0x777e6713
1,     311040,     311040,     1024,     4096, 0xdec6beca
1,     312064,     312064,      896,     3584, 0xc701ffd6
0,        163,        163,        1,  6220800, 0xd794f363
1,     312960,     312960,     1024,     4096, 0xd761f748
1,     313984,     313984,      896,     3584, 0x1c0d0173
0,        164,        164,        1,  6220800, 0x520235f6
1,     314880,     314880,     1024,     4096, 0xe0f90c8c
1,     315904,     315904,      896,     3584, 0xb35d031a
0,        165,        165,        1,  6220800, 0xdee1f0f2
1,     316800,     316800,     1024,     4096, 0x7a741ad6
1,     317824,     317824,      896,     3584, 0xf122c702
0,        166,        166,        1,  6220800, 0x54e20c74
1,     318720,     318720,     1024,     4096, 0x2ec3dbc9
1,     319744,     319744,      896,     3584, 0x9cd1e2c4
0,        167,        167,        1,  6220800, 0xb9d16cd3
1,     320640,     320640,     1024,     4096, 0xd9011f6a
1,     321664,     321664,      896,     3584, 0x7189d3d0
0,        168,        168,        1,  6220800, 0x0ae19463
1,     322560,     322560,     1024,     4096, 0xea85ffec
1,     323584,     323584,      896,     3584, 0xbbbed5bc
0,        169,        169,        1,  6220800, 0xb22fe6e9
1,     324480,     324480,     1024,     4096, 0x6f5eec77
1,     325504,     325504,      896,     3584, 0x3794d993
0,        170,        170,        1,  6220800, 0xeeebf2b6
1,     326400,     326400,     1024,     4096, 0xabae0f1b
1,     327424,     327424,      896,     3584, 0x1f7c082a
0,        171,        171,        1,  6220800, 0xcdcab1eb
1,     328320,     328320,     1024,     4096, 0x439c0fc4
1,     329344,     329344,      896,     3584, 0x694b1858
0,        172,        172,        1,  6220800, 0xa39c1628
1,     330240,     330240,     1024,     4096, 0xbd5108a2
1,     331264,     331264,      896,     3584, 0x028bee8a
0,        173,        173,        1,  6220800, 0xdc05a5f8
1,     332160,     332160,     1024,     4096, 0xb807fdcc
1,     333184,     333184,      896,     3584, 0x44aade3d
0,        174,        174,        1,  6220800, 0xa0729dc9
1,     334080,     334080,     1024,     4096, 0x2d1201ad
1,     335104,     335104,      896,     3584, 0xedf7fa95
0,        175,        175,        1,  6220800, 0x67a00410
1,     336000,     336000,     1024,     4096, 0xada50f79
1,     337024,     337024,      896,     3584, 0xe776d47c
0,        176,        176,        1,  6220800, 0x617a7701
1,     337920,     337920,     1024,     4096, 0xbfbcfae1
1,     338944,     338944,      896,     3584, 0x83dcf07c
0,        177,        177,        1,  6220800, 0xa5ed378e
1,     339840,     339840,     1024,     4096, 0xe4a819ae
1,     340864,     340864,      896,     3584, 0x7597f2ed
0,        178,        178,        1,  6220800, 0xa7b24102
1,     341760,     341760,     1024,     4096, 0x9291f4a0
1,     342784,     342784,      896,     3584, 0x744040b2
0,        179,        179,        1,  6220800, 0xc7758a44
1,     343680,     343680,     1024,     4096, 0x397bdb24
1,     344704,     344704,      896,     3584, 0xf1aa0994
0,        180,        180,        1,  6220800, 0x5e9dab8f
1,     345600,     345600,     1024,     4096, 0xbe13dede
1,     346624,     346624,      896,     3584, 0x014b08d8
0,        181,        181,        1,  6220800, 0x930bd107
1,     347520,     347520,     1024,     4096, 0x3965dc53
1,     348544,     348544,      896,     3584, 0xcb58f189
0,        182,        182,        1,  6220800, 0xd612af39
1,     349440,     349440,     1024,     4096, 0xc2fee55a
1,     350464,     350464,      896,     3584, 0xee8b0a7e
0,        183,        183,        1,  6220800, 0x5a6d6b2b
1,     351360,     351360,     1024,     4096, 0xf336dd36
1,     352384,     352384,      896,     3584, 0x65d0083b
0,        184,        184,        1,  6220800, 0x34c540c5
1,     353280,     353280,     1024,     4096, 0x79390d12
1,     354304,     354304,      896,     3584, 0x3e0be4d2
0,        185,        185,        1,  6220800, 0xdb84723b
1,     355200,     355200,     1024,     4096, 0x85fae039
1,     356224,     356224,      896,     3584, 0x2829c529
0,        186,        186,        1,  6220800, 0x953569f5
1,     357120,     357120,     1024,     4096, 0xfba109e7
1,     358144,     358144,      896,     3584, 0xf733ca95
0,        187,        187,        1,  6220800, 0xa00517e1
1,     359040,     359040,     1024,     4096, 0xbcc8d2d2
1,     360064,     360064,      896,     3584, 0x4a52011d
0,        188,        188,        1,  6220800, 0x9ffd06fa
1,     360960,     360960,     1024,     4096, 0xa1f9ffe1
1,     361984,     361984,      896,     3584, 0xfc5e05ad
0,        189,        189,        1,  6220800, 0xa46ad354
1,     362880,     362880,     1024,     4096, 0x93ba0e53
1,     363904,     363904,      896,     3584, 0xd0df1369
0,        190,        190,        1,  6220800, 0x6642fd44
1,     364800,     364800,     1024,     4096, 0x9b19bbd1
1,     365824,     365824,      896,     3584, 0x597cd850
0,        191,        191,        1,  6220800, 0x8af04e2d
1,     366720,     366720,     1024,     4096, 0x40c2fe68
1,     367744,     367744,      896,     3584, 0x974cf4f7
0,        192,        192,        1,  6220800, 0x7d3b2f0e
1,     368640,     368640,     1024,     4096, 0xbb8d0cab
1,     369664,     369664,      896,     3584, 0x99351203
0,        193,        193,        1,  6220800, 0x5452eafd
1,     370560,     370560,     1024,     4096, 0x62280c1d
1,     371584,     371584,      896,     3584, 0x8413ed27
0,        194,        194,        1,  6220800, 0x04c0d5a9
1,     372480,     372480,     1024,     4096, 0x36892756
1,     373504,     373504,      896,     3584, 0x033af785
0,        195,        195,        1,  6220800, 0x5072b486
1,     374400,     374400,     1024,     4096, 0x24c3c9a6
1,     375424,     375424,      896,     3584, 0xc36df275
0,        196,        196,        1,  6220800, 0x78725cb3
1,     376320,     376320,     1024,     4096, 0xc5afbc4e
1,     377344,     377344,      896,     3584, 0xeabd1074
0,        197,        197,        1,  6220800, 0x520b622f
1,     378240,     378240,     1024,     4096, 0xd01702cb
1,     379264,     379264,      896,     3584, 0x48a920e9
0,        198,        198,        1,  6220800, 0x3b603a40
1,     380160,     380160,     1024,     4096, 0x3ea0b541
1,     381184,     381184,      896,     3584, 0x61fbcb84
0,        199,        199,        1,  6220800, 0x824d1db1
1,     382080,     382080,     1024,     4096, 0x161c0e9a
1,     383104,     383104,      896,     3584, 0x8d362346
0,        200,        200,        1,  6220800, 0x8e319cdf
1,     384000,     384000,     1024,     4096, 0xfb0310ba
1,     385024,     385024,      896,     3584, 0x60951498
0,        201,        201,        1,  6220800, 0x6c5bf056
1,     385920,     385920,     1024,     4096, 0x0527f634
1,     386944,     386944,      896,     3584, 0x8ba5f4de
0,        202,        202,        1,  6220800, 0x3fd3fc14
1,     387840,     387840,     1024,     4096, 0x7eb9fe97
1,     388864,     388864,      896,     3584, 0x440792f6
0,        203,        203,        1,  6220800, 0x9e11d020
1,     389760,     389760,     1024,     4096, 0x39f8b8fc
1,     390784,     390784,      896,     3584, 0x5ce11b69
0,        204,        204,        1,  6220800, 0x14eba145
1,     391680,     391680,     1024,     4096, 0x812cea4f
1,     392704,     392704,      896,     3584, 0x64cd3ca1
0,        205,        205,        1,  6220800, 0x8083cafc
1,     393600,     393600,     1024,     4096, 0xe89f0059
1,     394624,     394624,      896,     3584, 0x1a8e2ea8
0,        206,        206,        1,  6220800, 0x0d6cb80d
1,     395520,     395520,     1024,     4096, 0xbc313b72
1,     396544,     396544,      896,     3584, 0xc3052527
0,        207,        207,        1,  6220800, 0xcd1fbc2c
1,     397440,     397440,     1024,     4096, 0x2a7d1e33
1,     398464,     398464,      896,     3584, 0xa334f167
0,        208,        208,        1,  6220800, 0xcc14b310
1,     399360,     399360,     1024,     4096, 0x3c62979a
1,     400384,     400384,      896,     3584, 0xae57f9f0
0,        209,        209,        1,  6220800, 0x4f8a1a21
1,     401280,     401280,     1024,     4096, 0x40a2c2e5
1,     402304,     402304,      896,     3584, 0x808bfce4
0,        210,        210,        1,  6220800, 0xb918d7e4
1,     403200,     403200,     1024,     4096, 0xfc4d3d0d
1,     404224,     404224,      896,     3584, 0x53dcca3a
1,     405120,     405120,     1024,     4096, 0xebff2065
1,     406144,     406144,      896,     3584, 0x5383d353
